<mxfile host="app.diagrams.net" modified="2023-08-24T03:58:47.689Z" agent="Mozilla/5.0 (Macintosh; Intel Mac OS X 10_15_7) AppleWebKit/537.36 (KHTML, like Gecko) Chrome/115.0.0.0 Safari/537.36 Edg/115.0.1901.203" etag="8a95OaKnUZYxVXSxPxAe" version="21.6.9" type="device">
  <diagram name="第 1 页" id="Ku_IuMZ0PeimsY--ayap">
    <mxGraphModel dx="1152" dy="660" grid="1" gridSize="10" guides="1" tooltips="1" connect="1" arrows="1" fold="1" page="1" pageScale="1" pageWidth="827" pageHeight="1169" math="0" shadow="0">
      <root>
        <mxCell id="0" />
        <mxCell id="1" parent="0" />
        <mxCell id="7bzFC8ZKVc0NRNFI1Em0-1" value="..." style="rounded=0;whiteSpace=wrap;html=1;fillColor=none;dashed=1;" vertex="1" parent="1">
          <mxGeometry x="10" y="360" width="339" height="180" as="geometry" />
        </mxCell>
        <mxCell id="7bzFC8ZKVc0NRNFI1Em0-2" value="" style="rounded=1;whiteSpace=wrap;html=1;" vertex="1" parent="1">
          <mxGeometry x="24" y="370" width="310" height="40" as="geometry" />
        </mxCell>
        <mxCell id="7bzFC8ZKVc0NRNFI1Em0-3" value="Source" style="ellipse;whiteSpace=wrap;html=1;" vertex="1" parent="1">
          <mxGeometry x="40" y="376" width="60" height="30" as="geometry" />
        </mxCell>
        <mxCell id="7bzFC8ZKVc0NRNFI1Em0-4" value="ExchangeSink" style="ellipse;whiteSpace=wrap;html=1;" vertex="1" parent="1">
          <mxGeometry x="238" y="376" width="86" height="30" as="geometry" />
        </mxCell>
        <mxCell id="7bzFC8ZKVc0NRNFI1Em0-10" value="Operator" style="ellipse;whiteSpace=wrap;html=1;" vertex="1" parent="1">
          <mxGeometry x="139" y="376" width="60" height="30" as="geometry" />
        </mxCell>
        <mxCell id="7bzFC8ZKVc0NRNFI1Em0-12" value="" style="rounded=1;whiteSpace=wrap;html=1;" vertex="1" parent="1">
          <mxGeometry x="24" y="480" width="310" height="40" as="geometry" />
        </mxCell>
        <mxCell id="7bzFC8ZKVc0NRNFI1Em0-13" value="Source" style="ellipse;whiteSpace=wrap;html=1;" vertex="1" parent="1">
          <mxGeometry x="40" y="486" width="60" height="30" as="geometry" />
        </mxCell>
        <mxCell id="7bzFC8ZKVc0NRNFI1Em0-14" value="ExchangeSink" style="ellipse;whiteSpace=wrap;html=1;" vertex="1" parent="1">
          <mxGeometry x="238" y="486" width="86" height="30" as="geometry" />
        </mxCell>
        <mxCell id="7bzFC8ZKVc0NRNFI1Em0-15" value="Operator" style="ellipse;whiteSpace=wrap;html=1;" vertex="1" parent="1">
          <mxGeometry x="139" y="486" width="60" height="30" as="geometry" />
        </mxCell>
        <mxCell id="7bzFC8ZKVc0NRNFI1Em0-20" value="" style="rounded=1;whiteSpace=wrap;html=1;" vertex="1" parent="1">
          <mxGeometry x="464" y="260" width="310" height="40" as="geometry" />
        </mxCell>
        <mxCell id="7bzFC8ZKVc0NRNFI1Em0-21" value="ExchangeSource" style="ellipse;whiteSpace=wrap;html=1;" vertex="1" parent="1">
          <mxGeometry x="470" y="262" width="100" height="36" as="geometry" />
        </mxCell>
        <mxCell id="7bzFC8ZKVc0NRNFI1Em0-22" value="Sink" style="ellipse;whiteSpace=wrap;html=1;" vertex="1" parent="1">
          <mxGeometry x="710" y="266" width="54" height="30" as="geometry" />
        </mxCell>
        <mxCell id="7bzFC8ZKVc0NRNFI1Em0-23" value="Operator" style="ellipse;whiteSpace=wrap;html=1;" vertex="1" parent="1">
          <mxGeometry x="600" y="266" width="60" height="30" as="geometry" />
        </mxCell>
        <mxCell id="7bzFC8ZKVc0NRNFI1Em0-30" value="" style="rounded=1;whiteSpace=wrap;html=1;" vertex="1" parent="1">
          <mxGeometry x="464" y="380" width="310" height="40" as="geometry" />
        </mxCell>
        <mxCell id="7bzFC8ZKVc0NRNFI1Em0-31" value="ExchangeSource" style="ellipse;whiteSpace=wrap;html=1;" vertex="1" parent="1">
          <mxGeometry x="470" y="382" width="100" height="36" as="geometry" />
        </mxCell>
        <mxCell id="7bzFC8ZKVc0NRNFI1Em0-32" value="Sink" style="ellipse;whiteSpace=wrap;html=1;" vertex="1" parent="1">
          <mxGeometry x="710" y="386" width="54" height="30" as="geometry" />
        </mxCell>
        <mxCell id="7bzFC8ZKVc0NRNFI1Em0-33" value="Operator" style="ellipse;whiteSpace=wrap;html=1;" vertex="1" parent="1">
          <mxGeometry x="600" y="386" width="60" height="30" as="geometry" />
        </mxCell>
        <mxCell id="7bzFC8ZKVc0NRNFI1Em0-35" value="..." style="rounded=0;whiteSpace=wrap;html=1;fillColor=none;dashed=1;" vertex="1" parent="1">
          <mxGeometry x="449.5" y="251" width="339" height="180" as="geometry" />
        </mxCell>
        <mxCell id="7bzFC8ZKVc0NRNFI1Em0-38" value="FragmentInstance" style="text;html=1;strokeColor=none;fillColor=none;align=center;verticalAlign=middle;whiteSpace=wrap;rounded=0;" vertex="1" parent="1">
          <mxGeometry x="10" y="330" width="110" height="26" as="geometry" />
        </mxCell>
        <mxCell id="7bzFC8ZKVc0NRNFI1Em0-39" value="FragmentInstance" style="text;html=1;strokeColor=none;fillColor=none;align=center;verticalAlign=middle;whiteSpace=wrap;rounded=0;" vertex="1" parent="1">
          <mxGeometry x="449.5" y="220" width="110" height="26" as="geometry" />
        </mxCell>
      </root>
    </mxGraphModel>
  </diagram>
</mxfile>
